inDegrees=yes
name=flex_l_res.mot
DataType=double
version=3
OpenSimVersion=4.4-2022-07-23-0e9fedc
endheader
time	pelvis_tilt	pelvis_list	pelvis_rotation	pelvis_tx	pelvis_ty	pelvis_tz	hip_flexion_r	hip_adduction_r	hip_rotation_r	knee_angle_r	knee_angle_r_beta	ankle_angle_r	subtalar_angle_r	mtp_angle_r	hip_flexion_l	hip_adduction_l	hip_rotation_l	knee_angle_l	knee_angle_l_beta	ankle_angle_l	subtalar_angle_l	mtp_angle_l	lumbar_extension	lumbar_bending	lumbar_rotation	arm_flex_r	arm_add_r	arm_rot_r	elbow_flex_r	pro_sup_r	wrist_flex_r	wrist_dev_r	arm_flex_l	arm_add_l	arm_rot_l	elbow_flex_l	pro_sup_l	wrist_flex_l	wrist_dev_l
75	-0.9270164394215079	0.176962330644234	88.8327029467227	0	0.9399999999999999	0	45.02342777702037	-9.98052226336454	0	59.44962614599648	1.037591715327346	-4.987948732707625	0	0	45.02342777702037	-9.98052226336454	0	59.44962614599648	1.037591715327346	-4.987948732707625	0	0	-0.8356708641759067	-2.735436947978595	0.709171662847308	0	-13.20274962212352	0	75.24133578689273	45.02124694911699	0	0	-0.3392139443667733	-1.838019056493147	-0.9174707972009029	0.06885934827018782	45.02124694911699	0	0
76	-0.9270771581456611	0.1769639770737227	88.83271422484172	0	0.9399999999999999	0	45.02342458703061	-9.980531564045682	0	59.44968480082331	1.037592739047196	-4.987956243907217	0	0	45.02342458703061	-9.980531564045682	0	59.44968480082331	1.037592739047196	-4.987956243907217	0	0	-0.8356206334451303	-2.735462124420843	0.7091369994268294	0	-13.20287465519233	0	75.24130294955151	45.02123892880932	0	0	-0.339292826557321	-1.838088842353428	-0.9174951215742639	0.06886014259152501	45.02123892880932	0	0
77	-0.9270683235079346	0.1769412752369444	88.83272096175935	0	0.9399999999999999	0	45.0234213926834	-9.980540874294935	0	59.44974353730726	1.037593764192232	-4.987963761744711	0	0	45.0234213926834	-9.980540874294935	0	59.44974353730726	1.037593764192232	-4.987963761744711	0	0	-0.8356162811264491	-2.735494964661682	0.7091294839208384	0	-13.20299986708003	0	75.24127006735561	45.02123089945427	0	0	-0.3392586470214464	-1.838077439884857	-0.9174999382396754	0.0688597241642649	45.02123089945427	0	0
78	-0.9330903848040839	0.185948723515724	88.84181026107417	0	0.9399999999999999	0	45.02341393212803	-9.980562592791191	0	59.44988084339585	1.037596160635561	-4.987981294408048	0	0	45.02341393212803	-9.980562592791191	0	59.44988084339585	1.037596160635561	-4.987981294408048	0	0	-0.8443726714176114	-2.738687610484077	0.6997802566899852	0	-13.20329251145959	0	75.24119326936773	45.02121216482384	0	0	-0.4481827449833202	-2.309843073762551	-1.564029391566227	0.06077306768019232	45.02121216482384	0	0
79	-0.9150891273306635	0.1728985083746012	88.84363673612752	0	0.9399999999999999	0	45.02340904207203	-9.980576801043767	0	59.44997093252039	1.037597732987404	-4.98799275809057	0	0	45.02340904207203	-9.980576801043767	0	59.44997093252039	1.037597732987404	-4.98799275809057	0	0	-0.8382037768344571	-2.717818770161147	0.6926085156495995	0	-13.20348448307858	0	75.24114293176756	45.02119990342656	0	0	-0.4766679509412607	-2.747826415408816	-1.209821755929379	0.06486876569486361	45.02119990342656	0	0
80	-0.9281481342494398	0.1516630964704088	88.82795232265499	0	0.9399999999999999	0	45.02340533063252	-9.98058752131411	0	59.45003960897184	1.037598931617601	-4.988001396738385	0	0	45.02340533063252	-9.98058752131411	0	59.45003960897184	1.037598931617601	-4.988001396738385	0	0	-0.7818899832148065	-2.733839507370504	0.7098588566189119	0	-13.20363065253106	0	75.2411047266951	45.0211906419226	0	0	0.09775456451340363	-2.724022483151095	-1.3001995016194	0.09721214364045117	45.0211906419226	0	0
81	-0.9237041337820501	0.1643819773220357	88.8290706603569	0	0.9399999999999999	0	45.02340003998581	-9.980602877361846	0	59.45013709636449	1.037600633093582	-4.988013781337859	0	0	45.02340003998581	-9.980602877361846	0	59.45013709636449	1.037600633093582	-4.988013781337859	0	0	-0.8282678901024975	-2.731032688288152	0.7153187643738498	0	-13.20383840367855	0	75.24105026546681	45.02117738613616	0	0	0.3249051943562661	-3.008698214214743	-1.6242323308214	0.1062297552980847	45.02117738613616	0	0
82	-0.9266092482148027	0.1783431902875222	88.83151620291363	0	0.9399999999999999	0	45.0233970333606	-9.980611619402582	0	59.45019238103254	1.037601597993065	-4.988020832640859	0	0	45.0233970333606	-9.980611619402582	0	59.45019238103254	1.037601597993065	-4.988020832640859	0	0	-0.8336005770383478	-2.732757962195781	0.7108693606064425	0	-13.20395629862995	0	75.2410193156577	45.02116984124127	0	0	0.3031652859465289	-3.014815171492968	-1.626935051057584	0.1066465135096211	45.02116984124127	0	0
